<?xml version="1.0" encoding="UTF-8" standalone="no"?>
<!-- Created with Inkscape (http://www.inkscape.org/) -->

<svg
   xmlns:dc="http://purl.org/dc/elements/1.1/"
   xmlns:cc="http://creativecommons.org/ns#"
   xmlns:rdf="http://www.w3.org/1999/02/22-rdf-syntax-ns#"
   xmlns:svg="http://www.w3.org/2000/svg"
   xmlns="http://www.w3.org/2000/svg"
   xmlns:sodipodi="http://sodipodi.sourceforge.net/DTD/sodipodi-0.dtd"
   xmlns:inkscape="http://www.inkscape.org/namespaces/inkscape"
   width="517.79102"
   height="634.71198"
   viewBox="0 0 517.79102 634.71198"
   id="svg3705"
   version="1.1"
   inkscape:version="0.91 r13725"
   sodipodi:docname="FurrySnoo_4.svg">
  <defs
     id="defs3707" />
  <sodipodi:namedview
     id="base"
     pagecolor="#ffffff"
     bordercolor="#666666"
     borderopacity="1.0"
     inkscape:pageopacity="0.0"
     inkscape:pageshadow="2"
     inkscape:zoom="0.49497475"
     inkscape:cx="-24.823666"
     inkscape:cy="515.85379"
     inkscape:document-units="px"
     inkscape:current-layer="layer1"
     showgrid="false"
     units="px"
     inkscape:snap-page="true"
     inkscape:window-width="1301"
     inkscape:window-height="744"
     inkscape:window-x="65"
     inkscape:window-y="24"
     inkscape:window-maximized="1" />
  <metadata
     id="metadata3710">
    <rdf:RDF>
      <cc:Work
         rdf:about="">
        <dc:format>image/svg+xml</dc:format>
        <dc:type
           rdf:resource="http://purl.org/dc/dcmitype/StillImage" />
        <dc:title></dc:title>
      </cc:Work>
    </rdf:RDF>
  </metadata>
  <g
     inkscape:label="Layer 1"
     inkscape:groupmode="layer"
     id="layer1"
     transform="translate(0,-417.65018)">
    <g
       id="g4467"
       transform="matrix(16.702943,0,0,16.702943,0,417.65034)">
      <path
         id="path4111"
         d="M 0,0 31,0 31,38 0,38 0,0 Z"
         inkscape:connector-curvature="0"
         style="fill:#222222" />
      <path
         id="path4113"
         d="M 1,1 30,1 30,37 1,37 1,1 Z"
         inkscape:connector-curvature="0"
         style="fill:#ffa7d1" />
      <path
         id="path4115"
         d="m 11,2 2,0 0,1 -2,0 0,-1 z"
         inkscape:connector-curvature="0"
         style="fill:#222222" />
      <path
         id="path4117"
         d="m 10,3 1,0 0,1 -1,0 0,-1 z"
         inkscape:connector-curvature="0"
         style="fill:#222222" />
      <path
         id="path4119"
         d="m 11,3 2,0 0,9 -1,0 0,-1 -1,0 0,-1 -1,0 0,1 1,0 0,1 -2,0 0,-3 1,0 0,-2 1,0 0,-2 1,0 0,-1 -1,0 0,-1 z"
         inkscape:connector-curvature="0"
         style="fill:#ffffff" />
      <path
         id="path4121"
         d="m 13,3 1,0 0,2 -1,0 0,-2 z"
         inkscape:connector-curvature="0"
         style="fill:#222222" />
      <path
         id="path4123"
         d="m 20,3 2,0 0,1 -2,0 0,-1 z"
         inkscape:connector-curvature="0"
         style="fill:#222222" />
      <path
         id="path4125"
         d="M 9,4 10,4 10,5 9,5 9,4 Z"
         inkscape:connector-curvature="0"
         style="fill:#222222" />
      <path
         id="path4127"
         d="m 10,4 1,0 0,1 -1,0 0,-1 z"
         inkscape:connector-curvature="0"
         style="fill:#ffffff" />
      <path
         id="path4129"
         d="m 11,4 1,0 0,1 -1,0 0,-1 z"
         inkscape:connector-curvature="0"
         style="fill:#0082c5" />
      <path
         id="path4131"
         d="m 19,4 1,0 0,1 -1,0 0,-1 z"
         inkscape:connector-curvature="0"
         style="fill:#222222" />
      <path
         id="path4133"
         d="m 20,4 2,0 0,3 -1,0 0,-2 -1,0 0,-1 z"
         inkscape:connector-curvature="0"
         style="fill:#ffffff" />
      <path
         id="path4135"
         d="m 22,4 1,0 0,2 -1,0 0,-2 z"
         inkscape:connector-curvature="0"
         style="fill:#222222" />
      <path
         id="path4137"
         d="M 8,5 9,5 9,6 8,6 8,5 Z"
         inkscape:connector-curvature="0"
         style="fill:#222222" />
      <path
         id="path4139"
         d="M 9,5 10,5 10,7 9,7 9,5 Z"
         inkscape:connector-curvature="0"
         style="fill:#ffffff" />
      <path
         id="path4141"
         d="m 10,5 1,0 0,2 -1,0 0,-2 z"
         inkscape:connector-curvature="0"
         style="fill:#0082c5" />
      <path
         id="path4143"
         d="m 13,5 1,0 0,5 1,0 0,1 -1,0 0,1 -1,0 0,-7 z"
         inkscape:connector-curvature="0"
         style="fill:#0082c5" />
      <path
         id="path4145"
         d="m 18,5 1,0 0,1 -1,0 0,-1 z"
         inkscape:connector-curvature="0"
         style="fill:#222222" />
      <path
         id="path4147"
         d="m 19,5 1,0 0,2 -1,0 0,-2 z"
         inkscape:connector-curvature="0"
         style="fill:#ffffff" />
      <path
         id="path4149"
         d="m 20,5 1,0 0,2 -1,0 0,-2 z"
         inkscape:connector-curvature="0"
         style="fill:#0082c5" />
      <path
         id="path4151"
         d="M 8,6 9,6 9,7 8,7 8,6 Z"
         inkscape:connector-curvature="0"
         style="fill:#0082c5" />
      <path
         id="path4153"
         d="m 17,6 1,0 0,1 -1,0 0,-1 z"
         inkscape:connector-curvature="0"
         style="fill:#222222" />
      <path
         id="path4155"
         d="m 18,6 1,0 0,1 -1,0 0,-1 z"
         inkscape:connector-curvature="0"
         style="fill:#00d3dd" />
      <path
         id="path4157"
         d="m 22,6 1,0 0,2 -2,0 0,-1 1,0 0,-1 z"
         inkscape:connector-curvature="0"
         style="fill:#0082c5" />
      <path
         id="path4159"
         d="m 23,6 2,0 0,1 -2,0 0,-1 z"
         inkscape:connector-curvature="0"
         style="fill:#222222" />
      <path
         id="path4161"
         d="M 7,7 8,7 8,8 7,8 7,7 Z"
         inkscape:connector-curvature="0"
         style="fill:#0082c5" />
      <path
         id="path4163"
         d="m 8,7 1,0 0,2 -1,0 0,2 -1,0 0,2 1,0 0,-1 1,0 0,1 1,0 0,1 -2,0 0,1 2,0 0,1 -1,0 0,1 1,0 0,-1 1,0 0,-4 1,0 0,3 2,0 0,-2 1,0 0,-1 1,0 0,-1 1,0 0,-1 2,0 0,-1 2,0 0,1 -1,0 0,1 -2,0 0,1 -1,0 0,2 -1,0 0,1 -1,0 0,1 1,0 0,-1 1,0 0,-1 1,0 0,1 1,0 0,1 1,0 0,2 -1,0 0,1 -1,0 0,1 -1,0 0,1 2,0 0,1 1,0 0,2 1,0 0,1 1,0 0,1 -1,0 0,1 -5,0 0,-1 -1,0 0,-1 -1,0 0,-1 -1,0 0,2 1,0 0,1 2,0 0,1 1,0 0,1 -3,0 0,-1 -2,0 0,-1 -2,0 0,-2 -1,0 0,1 -2,0 0,-1 -1,0 0,1 -1,0 0,-2 1,0 0,-1 -3,0 0,-1 1,0 0,-1 3,0 0,-1 -2,0 0,-1 1,0 0,-1 1,0 0,-1 -2,0 0,-1 -1,0 0,-3 1,0 0,-2 1,0 L 6,9 7,9 7,8 8,8 8,7 Z"
         inkscape:connector-curvature="0"
         style="fill:#ffffff" />
      <path
         id="path4165"
         d="M 9,7 10,7 10,9 9,9 9,7 Z"
         inkscape:connector-curvature="0"
         style="fill:#0082c5" />
      <path
         id="path4167"
         d="m 16,7 1,0 0,1 -1,0 0,-1 z"
         inkscape:connector-curvature="0"
         style="fill:#222222" />
      <path
         id="path4169"
         d="m 17,7 2,0 0,2 -2,0 0,1 -1,0 0,1 -1,0 0,-2 1,0 0,-1 1,0 0,-1 z"
         inkscape:connector-curvature="0"
         style="fill:#ffffff" />
      <path
         id="path4171"
         d="m 19,7 1,0 0,1 1,0 0,1 -2,0 0,-2 z"
         inkscape:connector-curvature="0"
         style="fill:#0082c5" />
      <path
         id="path4173"
         d="m 20,7 1,0 0,1 -1,0 0,-1 z"
         inkscape:connector-curvature="0"
         style="fill:#00d3dd" />
      <path
         id="path4175"
         d="m 23,7 2,0 0,2 -1,0 0,-1 -1,0 0,-1 z"
         inkscape:connector-curvature="0"
         style="fill:#ffffff" />
      <path
         id="path4177"
         d="m 25,7 1,0 0,1 -1,0 0,-1 z"
         inkscape:connector-curvature="0"
         style="fill:#222222" />
      <path
         id="path4179"
         d="M 6,8 7,8 7,9 6,9 6,8 Z"
         inkscape:connector-curvature="0"
         style="fill:#0082c5" />
      <path
         id="path4181"
         d="m 15,8 1,0 0,1 -1,0 0,-1 z"
         inkscape:connector-curvature="0"
         style="fill:#222222" />
      <path
         id="path4183"
         d="m 21,8 2,0 0,1 -2,0 0,-1 z"
         inkscape:connector-curvature="0"
         style="fill:#ffffff" />
      <path
         id="path4185"
         d="m 23,8 1,0 0,1 -1,0 0,-1 z"
         inkscape:connector-curvature="0"
         style="fill:#222222" />
      <path
         id="path4187"
         d="m 25,8 1,0 0,2 1,0 0,1 -2,0 0,-3 z"
         inkscape:connector-curvature="0"
         style="fill:#0082c5" />
      <path
         id="path4189"
         d="M 5,9 6,9 6,11 5,11 5,9 Z"
         inkscape:connector-curvature="0"
         style="fill:#222222" />
      <path
         id="path4191"
         d="M 8,9 9,9 9,11 8,11 8,9 Z"
         inkscape:connector-curvature="0"
         style="fill:#0082c5" />
      <path
         id="path4193"
         d="m 11,9 1,0 0,1 -1,0 0,-1 z"
         inkscape:connector-curvature="0"
         style="fill:#00d3dd" />
      <path
         id="path4195"
         d="m 14,9 1,0 0,1 -1,0 0,-1 z"
         inkscape:connector-curvature="0"
         style="fill:#222222" />
      <path
         id="path4197"
         d="m 17,9 2,0 0,1 -2,0 0,-1 z"
         inkscape:connector-curvature="0"
         style="fill:#0082c5" />
      <path
         id="path4199"
         d="m 21,9 1,0 0,1 -1,0 0,-1 z"
         inkscape:connector-curvature="0"
         style="fill:#0082c5" />
      <path
         id="path4201"
         d="m 22,9 1,0 0,2 -1,0 0,-2 z"
         inkscape:connector-curvature="0"
         style="fill:#222222" />
      <path
         id="path4203"
         d="m 24,9 1,0 0,1 -1,0 0,-1 z"
         inkscape:connector-curvature="0"
         style="fill:#222222" />
      <path
         id="path4205"
         d="m 10,10 1,0 0,1 -1,0 0,-1 z"
         inkscape:connector-curvature="0"
         style="fill:#00d3dd" />
      <path
         id="path4207"
         d="m 16,10 1,0 0,1 -1,0 0,-1 z"
         inkscape:connector-curvature="0"
         style="fill:#0082c5" />
      <path
         id="path4209"
         d="m 20,10 1,0 0,1 -1,0 0,-1 z"
         inkscape:connector-curvature="0"
         style="fill:#0082c5" />
      <path
         id="path4211"
         d="m 21,10 1,0 0,1 -1,0 0,-1 z"
         inkscape:connector-curvature="0"
         style="fill:#00d3dd" />
      <path
         id="path4213"
         d="m 4,11 1,0 0,2 -1,0 0,-2 z"
         inkscape:connector-curvature="0"
         style="fill:#222222" />
      <path
         id="path4215"
         d="m 7,11 1,0 0,2 -1,0 0,-2 z"
         inkscape:connector-curvature="0"
         style="fill:#0082c5" />
      <path
         id="path4217"
         d="m 8,11 1,0 0,1 -1,0 0,-1 z"
         inkscape:connector-curvature="0"
         style="fill:#00d3dd" />
      <path
         id="path4219"
         d="m 11,11 1,0 0,1 -1,0 0,-1 z"
         inkscape:connector-curvature="0"
         style="fill:#00d3dd" />
      <path
         id="path4221"
         d="m 14,11 1,0 0,1 -1,0 0,-1 z"
         inkscape:connector-curvature="0"
         style="fill:#ffffff" />
      <path
         id="path4223"
         d="m 15,11 1,0 0,1 -1,0 0,-1 z"
         inkscape:connector-curvature="0"
         style="fill:#0082c5" />
      <path
         id="path4225"
         d="m 18,11 2,0 0,1 -2,0 0,-1 z"
         inkscape:connector-curvature="0"
         style="fill:#0082c5" />
      <path
         id="path4227"
         d="m 20,11 1,0 0,1 -1,0 0,-1 z"
         inkscape:connector-curvature="0"
         style="fill:#00d3dd" />
      <path
         id="path4229"
         d="m 21,11 1,0 0,1 -1,0 0,-1 z"
         inkscape:connector-curvature="0"
         style="fill:#222222" />
      <path
         id="path4231"
         d="m 26,11 2,0 0,1 -2,0 0,-1 z"
         inkscape:connector-curvature="0"
         style="fill:#a06a42" />
      <path
         id="path4233"
         d="m 9,12 1,0 0,1 -1,0 0,-1 z"
         inkscape:connector-curvature="0"
         style="fill:#0082c5" />
      <path
         id="path4235"
         d="m 10,12 1,0 0,1 -1,0 0,-1 z"
         inkscape:connector-curvature="0"
         style="fill:#00d3dd" />
      <path
         id="path4237"
         d="m 12,12 1,0 0,1 1,0 0,1 -1,0 0,1 -1,0 0,-3 z"
         inkscape:connector-curvature="0"
         style="fill:#0082c5" />
      <path
         id="path4239"
         d="m 13,12 1,0 0,1 -1,0 0,-1 z"
         inkscape:connector-curvature="0"
         style="fill:#ffffff" />
      <path
         id="path4241"
         d="m 14,12 1,0 0,1 -1,0 0,-1 z"
         inkscape:connector-curvature="0"
         style="fill:#0082c5" />
      <path
         id="path4243"
         d="m 17,12 1,0 0,1 -1,0 0,-1 z"
         inkscape:connector-curvature="0"
         style="fill:#0082c5" />
      <path
         id="path4245"
         d="m 18,12 1,0 0,1 2,0 0,1 -1,0 0,1 -1,0 0,-1 -1,0 0,-2 z"
         inkscape:connector-curvature="0"
         style="fill:#ffffff" />
      <path
         id="path4247"
         d="m 19,12 1,0 0,1 -1,0 0,-1 z"
         inkscape:connector-curvature="0"
         style="fill:#00d3dd" />
      <path
         id="path4249"
         d="m 20,12 1,0 0,1 -1,0 0,-1 z"
         inkscape:connector-curvature="0"
         style="fill:#222222" />
      <path
         id="path4251"
         d="m 25,12 1,0 0,2 -1,0 0,-2 z"
         inkscape:connector-curvature="0"
         style="fill:#a06a42" />
      <path
         id="path4253"
         d="m 26,12 1,0 0,1 1,0 0,1 -2,0 0,-2 z"
         inkscape:connector-curvature="0"
         style="fill:#e59500" />
      <path
         id="path4255"
         d="m 27,12 1,0 0,1 -1,0 0,-1 z"
         inkscape:connector-curvature="0"
         style="fill:#ffd800" />
      <path
         id="path4257"
         d="m 28,12 1,0 0,2 -1,0 0,-2 z"
         inkscape:connector-curvature="0"
         style="fill:#a06a42" />
      <path
         id="path4259"
         d="m 3,13 1,0 0,4 -1,0 0,-4 z"
         inkscape:connector-curvature="0"
         style="fill:#222222" />
      <path
         id="path4261"
         d="m 10,13 1,0 0,1 -1,0 0,-1 z"
         inkscape:connector-curvature="0"
         style="fill:#0082c5" />
      <path
         id="path4263"
         d="m 17,13 1,0 0,1 -1,0 0,-1 z"
         inkscape:connector-curvature="0"
         style="fill:#00d3dd" />
      <path
         id="path4265"
         d="m 21,13 1,0 0,1 -1,0 0,-1 z"
         inkscape:connector-curvature="0"
         style="fill:#222222" />
      <path
         id="path4267"
         d="m 8,14 1,0 0,1 -1,0 0,-1 z"
         inkscape:connector-curvature="0"
         style="fill:#00d3dd" />
      <path
         id="path4269"
         d="m 9,14 1,0 0,1 -1,0 0,-1 z"
         inkscape:connector-curvature="0"
         style="fill:#0082c5" />
      <path
         id="path4271"
         d="m 10,14 1,0 0,1 -1,0 0,-1 z"
         inkscape:connector-curvature="0"
         style="fill:#00d3dd" />
      <path
         id="path4273"
         d="m 13,14 1,0 0,1 -1,0 0,-1 z"
         inkscape:connector-curvature="0"
         style="fill:#00d3dd" />
      <path
         id="path4275"
         d="m 16,14 1,0 0,1 -1,0 0,-1 z"
         inkscape:connector-curvature="0"
         style="fill:#00d3dd" />
      <path
         id="path4277"
         d="m 18,14 1,0 0,1 -1,0 0,-1 z"
         inkscape:connector-curvature="0"
         style="fill:#00d3dd" />
      <path
         id="path4279"
         d="m 20,14 1,0 0,1 -1,0 0,-1 z"
         inkscape:connector-curvature="0"
         style="fill:#222222" />
      <path
         id="path4281"
         d="m 26,14 2,0 0,1 -2,0 0,-1 z"
         inkscape:connector-curvature="0"
         style="fill:#a06a42" />
      <path
         id="path4283"
         d="m 10,15 1,0 0,1 -1,0 0,-1 z"
         inkscape:connector-curvature="0"
         style="fill:#0082c5" />
      <path
         id="path4285"
         d="m 15,15 1,0 0,1 -1,0 0,-1 z"
         inkscape:connector-curvature="0"
         style="fill:#00d3dd" />
      <path
         id="path4287"
         d="m 19,15 1,0 0,1 -1,0 0,-1 z"
         inkscape:connector-curvature="0"
         style="fill:#00d3dd" />
      <path
         id="path4289"
         d="m 20,15 1,0 0,1 -1,0 0,-1 z"
         inkscape:connector-curvature="0"
         style="fill:#ffffff" />
      <path
         id="path4291"
         d="m 21,15 1,0 0,2 -1,0 0,-2 z"
         inkscape:connector-curvature="0"
         style="fill:#222222" />
      <path
         id="path4293"
         d="m 4,16 1,0 0,1 -1,0 0,-1 z"
         inkscape:connector-curvature="0"
         style="fill:#00d3dd" />
      <path
         id="path4295"
         d="m 9,16 1,0 0,1 -1,0 0,-1 z"
         inkscape:connector-curvature="0"
         style="fill:#00d3dd" />
      <path
         id="path4297"
         d="m 20,16 1,0 0,1 -1,0 0,-1 z"
         inkscape:connector-curvature="0"
         style="fill:#0082c5" />
      <path
         id="path4299"
         d="m 4,17 1,0 0,1 -1,0 0,-1 z"
         inkscape:connector-curvature="0"
         style="fill:#222222" />
      <path
         id="path4301"
         d="m 5,17 2,0 0,1 -2,0 0,-1 z"
         inkscape:connector-curvature="0"
         style="fill:#00d3dd" />
      <path
         id="path4303"
         d="m 20,17 1,0 0,1 -1,0 0,-1 z"
         inkscape:connector-curvature="0"
         style="fill:#222222" />
      <path
         id="path4305"
         d="m 3,18 1,0 0,1 -1,0 0,-1 z"
         inkscape:connector-curvature="0"
         style="fill:#222222" />
      <path
         id="path4307"
         d="m 4,18 1,0 0,1 -1,0 0,-1 z"
         inkscape:connector-curvature="0"
         style="fill:#ffffff" />
      <path
         id="path4309"
         d="m 5,18 1,0 0,1 -1,0 0,-1 z"
         inkscape:connector-curvature="0"
         style="fill:#0082c5" />
      <path
         id="path4311"
         d="m 11,18 1,0 0,2 -2,0 0,-1 1,0 0,-1 z"
         inkscape:connector-curvature="0"
         style="fill:#00d3dd" />
      <path
         id="path4313"
         d="m 12,18 3,0 0,1 -3,0 0,-1 z"
         inkscape:connector-curvature="0"
         style="fill:#e50000" />
      <path
         id="path4315"
         d="m 19,18 2,0 0,1 -2,0 0,-1 z"
         inkscape:connector-curvature="0"
         style="fill:#e50000" />
      <path
         id="path4317"
         d="m 21,18 1,0 0,2 -1,0 0,-2 z"
         inkscape:connector-curvature="0"
         style="fill:#222222" />
      <path
         id="path4319"
         d="m 4,19 1,0 0,2 -1,0 0,-2 z"
         inkscape:connector-curvature="0"
         style="fill:#222222" />
      <path
         id="path4321"
         d="m 15,19 1,0 0,1 -1,0 0,-1 z"
         inkscape:connector-curvature="0"
         style="fill:#e50000" />
      <path
         id="path4323"
         d="m 18,19 1,0 0,1 -1,0 0,-1 z"
         inkscape:connector-curvature="0"
         style="fill:#e50000" />
      <path
         id="path4325"
         d="m 19,19 2,0 0,1 1,0 0,1 -3,0 0,-2 z"
         inkscape:connector-curvature="0"
         style="fill:#ffffff" />
      <path
         id="path4327"
         d="m 5,20 1,0 0,1 -1,0 0,-1 z"
         inkscape:connector-curvature="0"
         style="fill:#0082c5" />
      <path
         id="path4329"
         d="m 6,20 1,0 0,1 -1,0 0,-1 z"
         inkscape:connector-curvature="0"
         style="fill:#00d3dd" />
      <path
         id="path4331"
         d="m 12,20 1,0 0,1 -1,0 0,-1 z"
         inkscape:connector-curvature="0"
         style="fill:#00d3dd" />
      <path
         id="path4333"
         d="m 17,20 2,0 0,1 -2,0 0,-1 z"
         inkscape:connector-curvature="0"
         style="fill:#00d3dd" />
      <path
         id="path4335"
         d="m 22,20 1,0 0,1 -1,0 0,-1 z"
         inkscape:connector-curvature="0"
         style="fill:#222222" />
      <path
         id="path4337"
         d="m 3,21 1,0 0,1 -1,0 0,-1 z"
         inkscape:connector-curvature="0"
         style="fill:#222222" />
      <path
         id="path4339"
         d="m 19,21 2,0 0,1 -2,0 0,-1 z"
         inkscape:connector-curvature="0"
         style="fill:#0082c5" />
      <path
         id="path4341"
         d="m 21,21 1,0 0,1 3,0 0,5 -1,0 0,-2 -1,0 0,-1 1,0 0,-1 -3,0 0,-2 z"
         inkscape:connector-curvature="0"
         style="fill:#222222" />
      <path
         id="path4343"
         d="m 2,22 1,0 0,1 -1,0 0,-1 z"
         inkscape:connector-curvature="0"
         style="fill:#222222" />
      <path
         id="path4345"
         d="m 10,22 1,0 0,1 -1,0 0,-1 z"
         inkscape:connector-curvature="0"
         style="fill:#00d3dd" />
      <path
         id="path4347"
         d="m 11,22 2,0 0,2 -1,0 0,-1 -1,0 0,-1 z"
         inkscape:connector-curvature="0"
         style="fill:#0082c5" />
      <path
         id="path4349"
         d="m 13,22 1,0 0,1 -1,0 0,-1 z"
         inkscape:connector-curvature="0"
         style="fill:#00d3dd" />
      <path
         id="path4351"
         d="m 20,22 1,0 0,1 -1,0 0,-1 z"
         inkscape:connector-curvature="0"
         style="fill:#00d3dd" />
      <path
         id="path4353"
         d="m 3,23 1,0 0,1 -1,0 0,-1 z"
         inkscape:connector-curvature="0"
         style="fill:#222222" />
      <path
         id="path4355"
         d="m 4,23 2,0 0,1 -2,0 0,-1 z"
         inkscape:connector-curvature="0"
         style="fill:#00d3dd" />
      <path
         id="path4357"
         d="m 18,23 1,0 0,1 -1,0 0,-1 z"
         inkscape:connector-curvature="0"
         style="fill:#00d3dd" />
      <path
         id="path4359"
         d="m 20,23 1,0 0,1 -1,0 0,-1 z"
         inkscape:connector-curvature="0"
         style="fill:#222222" />
      <path
         id="path4361"
         d="m 21,23 3,0 0,1 -1,0 0,1 -1,0 0,-1 -1,0 0,-1 z"
         inkscape:connector-curvature="0"
         style="fill:#404040" />
      <path
         id="path4363"
         d="m 4,24 1,0 0,2 1,0 0,1 -2,0 0,-3 z"
         inkscape:connector-curvature="0"
         style="fill:#222222" />
      <path
         id="path4365"
         d="m 13,24 1,0 0,1 -1,0 0,-1 z"
         inkscape:connector-curvature="0"
         style="fill:#0082c5" />
      <path
         id="path4367"
         d="m 16,24 1,0 0,1 -1,0 0,-1 z"
         inkscape:connector-curvature="0"
         style="fill:#00d3dd" />
      <path
         id="path4369"
         d="m 21,24 1,0 0,1 -1,0 0,-1 z"
         inkscape:connector-curvature="0"
         style="fill:#222222" />
      <path
         id="path4371"
         d="m 6,25 1,0 0,1 -1,0 0,-1 z"
         inkscape:connector-curvature="0"
         style="fill:#0082c5" />
      <path
         id="path4373"
         d="m 9,25 1,0 0,2 -1,0 0,-2 z"
         inkscape:connector-curvature="0"
         style="fill:#00d3dd" />
      <path
         id="path4375"
         d="m 13,25 1,0 0,1 -1,0 0,-1 z"
         inkscape:connector-curvature="0"
         style="fill:#00d3dd" />
      <path
         id="path4377"
         d="m 14,25 1,0 0,1 -1,0 0,-1 z"
         inkscape:connector-curvature="0"
         style="fill:#0082c5" />
      <path
         id="path4379"
         d="m 19,25 1,0 0,1 -1,0 0,-1 z"
         inkscape:connector-curvature="0"
         style="fill:#00d3dd" />
      <path
         id="path4381"
         d="m 22,25 1,0 0,1 -1,0 0,-1 z"
         inkscape:connector-curvature="0"
         style="fill:#0082c5" />
      <path
         id="path4383"
         d="m 23,25 1,0 0,1 -1,0 0,-1 z"
         inkscape:connector-curvature="0"
         style="fill:#ffffff" />
      <path
         id="path4385"
         d="m 6,26 1,0 0,1 -1,0 0,-1 z"
         inkscape:connector-curvature="0"
         style="fill:#ffffff" />
      <path
         id="path4387"
         d="m 7,26 1,0 0,1 -1,0 0,-1 z"
         inkscape:connector-curvature="0"
         style="fill:#00d3dd" />
      <path
         id="path4389"
         d="m 8,26 1,0 0,1 -1,0 0,-1 z"
         inkscape:connector-curvature="0"
         style="fill:#0082c5" />
      <path
         id="path4391"
         d="m 14,26 1,0 0,1 -1,0 0,-1 z"
         inkscape:connector-curvature="0"
         style="fill:#00d3dd" />
      <path
         id="path4393"
         d="m 15,26 1,0 0,1 -1,0 0,-1 z"
         inkscape:connector-curvature="0"
         style="fill:#0082c5" />
      <path
         id="path4395"
         d="m 21,26 1,0 0,1 -1,0 0,-1 z"
         inkscape:connector-curvature="0"
         style="fill:#0082c5" />
      <path
         id="path4397"
         d="m 22,26 1,0 0,2 -2,0 0,-1 1,0 0,-1 z"
         inkscape:connector-curvature="0"
         style="fill:#00d3dd" />
      <path
         id="path4399"
         d="m 23,26 1,0 0,1 -1,0 0,-1 z"
         inkscape:connector-curvature="0"
         style="fill:#0082c5" />
      <path
         id="path4401"
         d="m 6,27 2,0 0,1 -2,0 0,-1 z"
         inkscape:connector-curvature="0"
         style="fill:#222222" />
      <path
         id="path4403"
         d="m 9,27 3,0 0,1 -3,0 0,-1 z"
         inkscape:connector-curvature="0"
         style="fill:#0082c5" />
      <path
         id="path4405"
         d="m 16,27 5,0 0,1 -5,0 0,-1 z"
         inkscape:connector-curvature="0"
         style="fill:#0082c5" />
      <path
         id="path4407"
         d="m 23,27 1,0 0,1 -1,0 0,-1 z"
         inkscape:connector-curvature="0"
         style="fill:#222222" />
      <path
         id="path4409"
         d="m 12,28 2,0 0,1 -2,0 0,-1 z"
         inkscape:connector-curvature="0"
         style="fill:#222222" />
      <path
         id="path4411"
         d="m 17,28 2,0 0,1 -2,0 0,-1 z"
         inkscape:connector-curvature="0"
         style="fill:#00d3dd" />
      <path
         id="path4413"
         d="m 19,28 4,0 0,1 -4,0 0,-1 z"
         inkscape:connector-curvature="0"
         style="fill:#222222" />
      <path
         id="path4415"
         d="m 14,29 5,0 0,1 -5,0 0,-1 z"
         inkscape:connector-curvature="0"
         style="fill:#222222" />
      <path
         id="path4417"
         d="m 2,31 2,0 0,1 -1,0 0,1 1,0 0,1 -1,0 0,2 -1,0 0,-5 z"
         inkscape:connector-curvature="0"
         style="fill:#222222" />
      <path
         id="path4419"
         d="m 8,31 1,0 0,2 -1,0 0,-2 z"
         inkscape:connector-curvature="0"
         style="fill:#222222" />
      <path
         id="path4421"
         d="m 10,31 3,0 0,1 -2,0 0,1 2,0 0,1 -2,0 0,2 -1,0 0,-5 z"
         inkscape:connector-curvature="0"
         style="fill:#222222" />
      <path
         id="path4423"
         d="m 14,31 1,0 0,4 -1,0 0,-4 z"
         inkscape:connector-curvature="0"
         style="fill:#222222" />
      <path
         id="path4425"
         d="m 16,31 1,0 0,4 -1,0 0,-4 z"
         inkscape:connector-curvature="0"
         style="fill:#222222" />
      <path
         id="path4427"
         d="m 18,31 2,0 0,1 -1,0 0,1 1,0 0,1 -1,0 0,2 -1,0 0,-5 z"
         inkscape:connector-curvature="0"
         style="fill:#222222" />
      <path
         id="path4429"
         d="m 22,31 2,0 0,1 -1,0 0,1 1,0 0,1 -1,0 0,2 -1,0 0,-5 z"
         inkscape:connector-curvature="0"
         style="fill:#222222" />
      <path
         id="path4431"
         d="m 26,31 1,0 0,3 -1,0 0,-3 z"
         inkscape:connector-curvature="0"
         style="fill:#222222" />
      <path
         id="path4433"
         d="m 28,31 1,0 0,3 -1,0 0,-3 z"
         inkscape:connector-curvature="0"
         style="fill:#222222" />
      <path
         id="path4435"
         d="m 3,32 1,0 0,1 -1,0 0,-1 z"
         inkscape:connector-curvature="0"
         style="fill:#ffa7d1" />
      <path
         id="path4437"
         d="m 4,32 1,0 0,1 -1,0 0,-1 z"
         inkscape:connector-curvature="0"
         style="fill:#222222" />
      <path
         id="path4439"
         d="m 19,32 1,0 0,1 -1,0 0,-1 z"
         inkscape:connector-curvature="0"
         style="fill:#ffa7d1" />
      <path
         id="path4441"
         d="m 20,32 1,0 0,1 -1,0 0,-1 z"
         inkscape:connector-curvature="0"
         style="fill:#222222" />
      <path
         id="path4443"
         d="m 23,32 1,0 0,1 -1,0 0,-1 z"
         inkscape:connector-curvature="0"
         style="fill:#ffa7d1" />
      <path
         id="path4445"
         d="m 24,32 1,0 0,1 -1,0 0,-1 z"
         inkscape:connector-curvature="0"
         style="fill:#222222" />
      <path
         id="path4447"
         d="m 7,33 1,0 0,1 -1,0 0,-1 z"
         inkscape:connector-curvature="0"
         style="fill:#222222" />
      <path
         id="path4449"
         d="m 4,34 1,0 0,2 -1,0 0,-2 z"
         inkscape:connector-curvature="0"
         style="fill:#222222" />
      <path
         id="path4451"
         d="m 6,34 1,0 0,2 -1,0 0,-2 z"
         inkscape:connector-curvature="0"
         style="fill:#222222" />
      <path
         id="path4453"
         d="m 20,34 1,0 0,2 -1,0 0,-2 z"
         inkscape:connector-curvature="0"
         style="fill:#222222" />
      <path
         id="path4455"
         d="m 24,34 1,0 0,2 -1,0 0,-2 z"
         inkscape:connector-curvature="0"
         style="fill:#222222" />
      <path
         id="path4457"
         d="m 27,34 1,0 0,2 -1,0 0,-2 z"
         inkscape:connector-curvature="0"
         style="fill:#222222" />
      <path
         id="path4459"
         d="m 15,35 1,0 0,1 -1,0 0,-1 z"
         inkscape:connector-curvature="0"
         style="fill:#222222" />
    </g>
  </g>
</svg>
